<?xml version="1.0" standalone="no"?>
<!DOCTYPE svg PUBLIC "-//W3C//DTD SVG 20010904//EN"
 "http://www.w3.org/TR/2001/REC-SVG-20010904/DTD/svg10.dtd">
<svg version="1.0" xmlns="http://www.w3.org/2000/svg"
 width="500.000000pt" height="500.000000pt" viewBox="0 0 500.000000 500.000000"
 preserveAspectRatio="xMidYMid meet">
<metadata>
Created by potrace 1.14, written by Peter Selinger 2001-2017
</metadata>
<g transform="translate(0.000000,500.000000) scale(0.100000,-0.100000)"
fill="#000000" stroke="none">
<path d="M0 2500 l0 -2500 2500 0 2500 0 0 2500 0 2500 -2500 0 -2500 0 0
-2500z m3288 515 c29 -9 52 -18 52 -20 0 -2 -8 -20 -17 -40 -14 -29 -21 -35
-38 -30 -11 4 -45 9 -75 12 -44 4 -59 2 -69 -11 -21 -25 1 -42 81 -61 93 -23
131 -55 131 -113 0 -75 -46 -116 -145 -128 -53 -6 -160 14 -180 34 -11 11 16
82 30 82 5 0 26 -7 45 -15 74 -31 170 -10 138 29 -7 8 -44 22 -83 31 -92 23
-133 57 -133 112 0 106 121 160 263 118z m490 -22 c80 -50 115 -159 78 -246
-48 -116 -214 -160 -329 -87 -109 69 -118 247 -16 322 75 56 187 61 267 11z
m-2806 -168 l86 -195 -58 0 -58 0 -16 40 -16 40 -81 0 -81 0 -15 -40 -16 -40
-58 0 -57 0 86 195 86 195 56 0 56 0 86 -195z m346 93 l82 -100 0 101 0 101
55 0 55 0 0 -195 0 -195 -45 0 c-45 0 -45 0 -127 101 l-83 100 -3 -100 -3
-101 -54 0 -55 0 0 195 0 195 48 -1 47 0 83 -101z m620 76 c68 -34 102 -88
102 -163 0 -66 -18 -108 -63 -148 -49 -43 -91 -53 -224 -53 l-113 0 0 195 0
195 123 0 c112 0 128 -2 175 -26z m522 -14 l0 -40 -100 0 -100 0 0 -35 0 -35
90 0 90 0 0 -40 0 -40 -90 0 -90 0 0 -35 0 -34 103 -3 102 -3 3 -42 3 -43
-160 0 -161 0 0 195 0 195 155 0 155 0 0 -40z m383 26 c50 -21 79 -59 84 -110
6 -54 -10 -99 -44 -126 l-24 -19 41 -60 41 -61 -61 0 -60 0 -32 50 c-28 43
-38 50 -65 50 -33 0 -33 0 -33 -50 l0 -50 -55 0 -55 0 0 195 0 195 115 0 c76
0 127 -5 148 -14z m1315 -88 l82 -100 0 101 0 101 55 0 55 0 0 -195 0 -195
-45 0 c-45 0 -45 0 -127 101 l-83 100 -3 -100 -3 -101 -54 0 -55 0 0 195 0
195 48 -1 47 0 83 -101z m-2374 -631 c22 -12 41 -26 42 -32 2 -5 -10 -20 -26
-33 -28 -22 -31 -22 -52 -8 -34 24 -92 20 -124 -7 -20 -18 -27 -33 -28 -64 -1
-65 54 -111 116 -98 26 6 28 10 28 56 l0 49 40 0 40 0 0 -76 0 -75 -34 -14
c-89 -38 -180 -27 -236 28 -40 39 -52 69 -51 129 0 104 72 168 186 168 44 0
71 -6 99 -23z m406 3 c57 -29 84 -73 88 -145 3 -50 0 -66 -20 -95 -67 -99
-204 -117 -293 -39 -86 76 -69 225 33 279 50 26 140 26 192 0z m308 -56 c81
-130 69 -128 133 -22 55 92 55 93 95 93 l39 0 3 -167 2 -168 -44 0 -45 0 -3
85 -3 85 -41 -67 c-54 -90 -74 -92 -124 -8 l-35 60 -3 -78 -3 -77 -49 0 -50 0
0 163 c0 90 3 167 7 170 3 4 21 7 40 7 31 0 37 -6 81 -76z m642 36 l0 -40 -85
0 c-84 0 -85 0 -85 -25 0 -24 2 -25 75 -25 l75 0 0 -40 0 -40 -75 0 -75 0 0
-30 0 -30 90 0 90 0 0 -35 0 -35 -140 0 -140 0 0 163 c0 90 3 167 7 170 3 4
64 7 135 7 l128 0 0 -40z m319 29 c35 -12 35 -14 20 -56 l-10 -31 -49 16 c-39
12 -55 13 -75 4 -43 -20 -30 -38 43 -57 120 -33 157 -102 89 -170 -41 -41
-104 -53 -181 -36 -76 17 -82 22 -66 63 7 18 14 34 15 36 1 1 19 -5 39 -13 21
-9 57 -15 79 -13 34 2 42 7 42 22 0 14 -10 22 -35 28 -105 25 -150 59 -150
113 0 31 32 77 63 90 39 17 132 19 176 4z"/>
<path d="M3614 2931 c-12 -5 -31 -22 -44 -38 -18 -23 -21 -37 -17 -76 5 -54
25 -82 72 -97 102 -34 180 109 103 187 -27 26 -81 38 -114 24z"/>
<path d="M820 2895 c0 -2 -9 -27 -20 -55 l-20 -50 49 0 49 0 -21 55 c-12 30
-25 55 -29 55 -5 0 -8 -2 -8 -5z"/>
<path d="M1750 2825 l0 -105 50 0 c90 0 130 36 130 116 0 26 -8 44 -29 65 -26
26 -36 29 -90 29 l-61 0 0 -105z"/>
<path d="M2690 2875 l0 -55 48 0 c53 0 82 20 82 58 0 35 -27 52 -81 52 l-49 0
0 -55z"/>
<path d="M2035 2205 c-19 -18 -25 -35 -25 -68 0 -55 33 -91 85 -91 52 0 85 36
85 91 0 57 -33 93 -85 93 -25 0 -44 -8 -60 -25z"/>
</g>
</svg>
